<svg width="126" height="126" viewBox="0 0 126 126" fill="none" xmlns="http://www.w3.org/2000/svg">
<path d="M84.2812 91V62.9219C84.2812 60.0781 83.5938 57.8906 82.2188 56.3594C80.875 54.7969 78.9531 54.0156 76.4531 54.0156C73.9844 54.0156 72.0781 54.7656 70.7344 56.2656C69.4219 57.7344 68.7656 59.8281 68.7656 62.5469L66.375 51.2969C67.9062 48.2031 69.9062 45.8281 72.375 44.1719C74.8438 42.4844 77.5625 41.6406 80.5312 41.6406C85.8125 41.6406 89.8906 43.5 92.7656 47.2188C95.6719 50.9062 97.125 56.125 97.125 62.875V91H84.2812ZM27.5625 91V42.3438H40.4062V91H27.5625ZM55.9219 91V62.9219C55.9219 60.0781 55.2188 57.8906 53.8125 56.3594C52.4375 54.7969 50.4531 54.0156 47.8594 54.0156C45.4844 54.0156 43.6406 54.6875 42.3281 56.0312C41.0469 57.3438 40.4062 59.2031 40.4062 61.6094L39.4219 50.8281C40.8281 47.8906 42.5938 45.625 44.7188 44.0312C46.875 42.4375 49.4375 41.6406 52.4062 41.6406C57.625 41.6406 61.6562 43.5 64.5 47.2188C67.3438 50.9062 68.7656 56.125 68.7656 62.875V91H55.9219Z" fill="#4369DB"/>
<line x1="64.5" y1="6.5" x2="64.5" y2="28.1957" stroke="#4369DB" stroke-width="3" stroke-linecap="round"/>
<line x1="1.5" y1="-1.5" x2="27.4188" y2="-1.5" transform="matrix(-0.67355 0.739141 -0.939141 -0.343532 111 12.4927)" stroke="#4369DB" stroke-width="3" stroke-linecap="round"/>
<line x1="1.5" y1="-1.5" x2="27.4188" y2="-1.5" transform="matrix(0.67355 0.739141 0.939141 -0.343532 15 12.4927)" stroke="#4369DB" stroke-width="3" stroke-linecap="round"/>
</svg>
