<svg width="280" height="280" viewBox="0 0 280 280" fill="none" xmlns="http://www.w3.org/2000/svg">
<circle cx="140" cy="140" r="140" fill="#4369DB"/>
<path d="M142.609 248.095C127.062 248.095 113.795 245.162 102.81 239.297C91.917 233.339 83.5846 224.727 77.8125 213.462C72.0404 202.104 69.1543 188.418 69.1543 172.405V116.686C69.1543 100.579 72.0404 86.8939 77.8125 75.6289C83.5846 64.3639 91.917 55.7523 102.81 49.7939C113.795 43.8356 127.062 40.8564 142.609 40.8564C155.457 40.8564 166.862 43.6029 176.823 49.0957C186.878 54.5885 195.164 62.5485 201.681 72.9756C208.291 83.4027 212.853 96.0641 215.366 110.96H175.706C174.216 104.164 171.889 98.4382 168.724 93.7832C165.651 89.0352 161.881 85.4043 157.412 82.8906C153.036 80.377 148.102 79.1201 142.609 79.1201C131.903 79.1201 123.571 82.4251 117.612 89.0352C111.747 95.5521 108.814 104.769 108.814 116.686V172.405C108.814 184.322 111.747 193.539 117.612 200.056C123.571 206.573 131.903 209.831 142.609 209.831C150.988 209.831 158.064 207.085 163.836 201.592C169.608 196.006 173.565 188.139 175.706 177.991H215.366C212.759 192.794 208.151 205.455 201.541 215.976C195.024 226.403 186.785 234.363 176.823 239.855C166.862 245.348 155.457 248.095 142.609 248.095Z" fill="white"/>
</svg>
