<svg viewBox="0 0 347 115" fill="none" xmlns="http://www.w3.org/2000/svg">
<path d="M30.75 86.7031C25.5312 86.7031 21.0781 85.7188 17.3906 83.75C13.7344 81.75 10.9375 78.8594 9 75.0781C7.0625 71.2656 6.09375 66.6719 6.09375 61.2969V42.5938C6.09375 37.1875 7.0625 32.5938 9 28.8125C10.9375 25.0312 13.7344 22.1406 17.3906 20.1406C21.0781 18.1406 25.5312 17.1406 30.75 17.1406C35.0625 17.1406 38.8906 18.0625 42.2344 19.9062C45.6094 21.75 48.3906 24.4219 50.5781 27.9219C52.7969 31.4219 54.3281 35.6719 55.1719 40.6719H41.8594C41.3594 38.3906 40.5781 36.4688 39.5156 34.9062C38.4844 33.3125 37.2188 32.0938 35.7188 31.25C34.25 30.4062 32.5938 29.9844 30.75 29.9844C27.1562 29.9844 24.3594 31.0938 22.3594 33.3125C20.3906 35.5 19.4062 38.5938 19.4062 42.5938V61.2969C19.4062 65.2969 20.3906 68.3906 22.3594 70.5781C24.3594 72.7656 27.1562 73.8594 30.75 73.8594C33.5625 73.8594 35.9375 72.9375 37.875 71.0938C39.8125 69.2188 41.1406 66.5781 41.8594 63.1719H55.1719C54.2969 68.1406 52.75 72.3906 50.5312 75.9219C48.3438 79.4219 45.5781 82.0938 42.2344 83.9375C38.8906 85.7812 35.0625 86.7031 30.75 86.7031ZM92.7656 86V55.1562C92.7656 52.9062 92.0156 51.1719 90.5156 49.9531C89.0156 48.7344 86.8906 48.125 84.1406 48.125C82.3281 48.125 80.5312 48.4219 78.75 49.0156C76.9688 49.5781 75.3906 50.4062 74.0156 51.5L66.0469 43.6719C67.9844 41.4531 70.5469 39.7344 73.7344 38.5156C76.9219 37.2656 80.4531 36.6406 84.3281 36.6406C90.7344 36.6406 95.6875 38.2188 99.1875 41.375C102.688 44.5312 104.438 48.9844 104.438 54.7344V86H92.7656ZM79.2188 86.7031C74.0312 86.7031 70.1406 85.4688 67.5469 83C64.9531 80.5312 63.6562 76.75 63.6562 71.6562C63.6562 66.8125 65.0938 63.2031 67.9688 60.8281C70.875 58.4219 75.2188 57.2188 81 57.2188H93.1875L93.8438 67.0156H81.0469C79.1094 67.0156 77.6562 67.4062 76.6875 68.1875C75.7188 68.9375 75.2344 70.0938 75.2344 71.6562C75.2344 73.25 75.8438 74.4375 77.0625 75.2188C78.3125 75.9688 80.1562 76.3438 82.5938 76.3438C86 76.3438 88.5469 75.9531 90.2344 75.1719C91.9219 74.3906 92.7656 73.1719 92.7656 71.5156L93.75 78.5938C93.5625 80.4375 92.7344 81.9688 91.2656 83.1875C89.7969 84.375 87.9844 85.2656 85.8281 85.8594C83.7031 86.4219 81.5 86.7031 79.2188 86.7031ZM199.312 105.781V37.3438H212.156V105.781H199.312ZM223.453 86.7031C220.609 86.7031 218.156 85.9844 216.094 84.5469C214.031 83.0781 212.5 81.0156 211.5 78.3594L212.156 67.25C212.156 68.8438 212.438 70.2031 213 71.3281C213.562 72.4531 214.375 73.3125 215.438 73.9062C216.531 74.5 217.844 74.7969 219.375 74.7969C221.781 74.7969 223.641 74 224.953 72.4062C226.297 70.8125 226.969 68.5625 226.969 65.6562V57.9219C226.969 54.9531 226.297 52.6562 224.953 51.0312C223.641 49.375 221.781 48.5469 219.375 48.5469C217.844 48.5469 216.531 48.8594 215.438 49.4844C214.375 50.0781 213.562 50.9531 213 52.1094C212.438 53.2656 212.156 54.6719 212.156 56.3281L211.172 45.5469C212.484 42.7031 214.203 40.5156 216.328 38.9844C218.484 37.4219 220.859 36.6406 223.453 36.6406C228.672 36.6406 232.703 38.5 235.547 42.2188C238.391 45.9062 239.812 51.125 239.812 57.875V65.6562C239.812 72.3438 238.391 77.5312 235.547 81.2188C232.703 84.875 228.672 86.7031 223.453 86.7031ZM278.25 86V37.3438H291.047V86H278.25ZM263.156 37.3438V66.9219C263.156 69.2656 263.812 71.0938 265.125 72.4062C266.469 73.6875 268.344 74.3281 270.75 74.3281C273.156 74.3281 275 73.6719 276.281 72.3594C277.594 71.0156 278.25 69.1094 278.25 66.6406L278.906 77.2812C278.094 79.6875 276.656 81.8594 274.594 83.7969C272.562 85.7344 269.922 86.7031 266.672 86.7031C261.453 86.7031 257.422 85.0156 254.578 81.6406C251.734 78.2656 250.312 73.5156 250.312 67.3906V37.3438H263.156ZM322.359 86.7031C317.984 86.7031 313.812 86.125 309.844 84.9688C305.906 83.7812 302.547 82.1406 299.766 80.0469L307.688 70.1562C310.031 71.6562 312.484 72.8125 315.047 73.625C317.609 74.4375 320.047 74.8438 322.359 74.8438C325.359 74.8438 327.688 74.5156 329.344 73.8594C331 73.1719 331.828 72.2344 331.828 71.0469C331.828 69.6094 331.25 68.625 330.094 68.0938C328.969 67.5625 327.484 67.2188 325.641 67.0625C323.797 66.875 321.844 66.6406 319.781 66.3594C317.688 66.0781 315.609 65.75 313.547 65.375C311.516 64.9688 309.656 64.3281 307.969 63.4531C306.281 62.5469 304.938 61.2031 303.938 59.4219C302.938 57.6094 302.438 55.1562 302.438 52.0625C302.438 47.1562 304.172 43.3594 307.641 40.6719C311.109 37.9844 316.016 36.6406 322.359 36.6406C326.078 36.6406 329.734 37.1875 333.328 38.2812C336.953 39.375 340.188 40.9219 343.031 42.9219L335.391 52.25C333.266 51.0625 331.047 50.1406 328.734 49.4844C326.422 48.8281 324.203 48.5 322.078 48.5C319.484 48.5 317.469 48.7969 316.031 49.3906C314.594 49.9531 313.875 50.7812 313.875 51.875C313.875 52.8125 314.375 53.5156 315.375 53.9844C316.375 54.4531 317.688 54.7969 319.312 55.0156C320.938 55.2031 322.688 55.4062 324.562 55.625C326.719 55.875 328.891 56.1875 331.078 56.5625C333.266 56.9062 335.266 57.5469 337.078 58.4844C338.922 59.4219 340.406 60.8438 341.531 62.75C342.656 64.6562 343.219 67.2812 343.219 70.625C343.219 75.7188 341.391 79.6719 337.734 82.4844C334.109 85.2969 328.984 86.7031 322.359 86.7031Z" fill="black"/>
<path d="M173.812 86V57.9219C173.812 55.0781 173.125 52.8906 171.75 51.3594C170.406 49.7969 168.484 49.0156 165.984 49.0156C163.516 49.0156 161.609 49.7656 160.266 51.2656C158.953 52.7344 158.297 54.8281 158.297 57.5469L155.906 46.2969C157.438 43.2031 159.438 40.8281 161.906 39.1719C164.375 37.4844 167.094 36.6406 170.062 36.6406C175.344 36.6406 179.422 38.5 182.297 42.2188C185.203 45.9062 186.656 51.125 186.656 57.875V86H173.812ZM117.094 86V37.3438H129.938V86H117.094ZM145.453 86V57.9219C145.453 55.0781 144.75 52.8906 143.344 51.3594C141.969 49.7969 139.984 49.0156 137.391 49.0156C135.016 49.0156 133.172 49.6875 131.859 51.0312C130.578 52.3438 129.938 54.2031 129.938 56.6094L128.953 45.8281C130.359 42.8906 132.125 40.625 134.25 39.0312C136.406 37.4375 138.969 36.6406 141.938 36.6406C147.156 36.6406 151.188 38.5 154.031 42.2188C156.875 45.9062 158.297 51.125 158.297 57.875V86H145.453Z" fill="#4369DB"/>
<line x1="151.5" y1="1.5" x2="151.5" y2="23.1957" stroke="#4369DB" stroke-width="3" stroke-linecap="round"/>
<line x1="1.5" y1="-1.5" x2="27.4188" y2="-1.5" transform="matrix(-0.67355 0.739141 -0.939141 -0.343532 198 7.49269)" stroke="#4369DB" stroke-width="3" stroke-linecap="round"/>
<line x1="1.5" y1="-1.5" x2="27.4188" y2="-1.5" transform="matrix(0.67355 0.739141 0.939141 -0.343532 102 7.49269)" stroke="#4369DB" stroke-width="3" stroke-linecap="round"/>
</svg>
