<svg width="600" height="280" viewBox="0 0 600 280" fill="none" xmlns="http://www.w3.org/2000/svg">
<path d="M41 115.938C34.0417 115.938 28.1042 114.625 23.1875 112C18.3125 109.333 14.5833 105.479 12 100.438C9.41667 95.3542 8.125 89.2292 8.125 82.0625V57.125C8.125 49.9167 9.41667 43.7917 12 38.75C14.5833 33.7083 18.3125 29.8542 23.1875 27.1875C28.1042 24.5208 34.0417 23.1875 41 23.1875C46.75 23.1875 51.8542 24.4167 56.3125 26.875C60.8125 29.3333 64.5208 32.8958 67.4375 37.5625C70.3958 42.2292 72.4375 47.8958 73.5625 54.5625H55.8125C55.1458 51.5208 54.1042 48.9583 52.6875 46.875C51.3125 44.75 49.625 43.125 47.625 42C45.6667 40.875 43.4583 40.3125 41 40.3125C36.2083 40.3125 32.4792 41.7917 29.8125 44.75C27.1875 47.6667 25.875 51.7917 25.875 57.125V82.0625C25.875 87.3958 27.1875 91.5208 29.8125 94.4375C32.4792 97.3542 36.2083 98.8125 41 98.8125C44.75 98.8125 47.9167 97.5833 50.5 95.125C53.0833 92.625 54.8542 89.1042 55.8125 84.5625H73.5625C72.3958 91.1875 70.3333 96.8542 67.375 101.562C64.4583 106.229 60.7708 109.792 56.3125 112.25C51.8542 114.708 46.75 115.938 41 115.938ZM97.23 115L131.98 24.125H142.855L177.605 115H159.167L137.417 52.9375L115.667 115H97.23ZM113.917 100.438V83.9375H161.73V100.438H113.917ZM249.21 85.375L266.522 24.125H289.085V115H273.522V44.4375L274.147 48.4375L256.772 104.875H241.647L224.272 49.6875L224.897 44.4375V115H209.335V24.125H231.897L249.21 85.375ZM337.378 79.75V63.25H366.44C369.523 63.25 372.023 62.2292 373.94 60.1875C375.857 58.1042 376.815 55.375 376.815 52C376.815 48.5417 375.857 45.7917 373.94 43.75C372.065 41.6667 369.565 40.625 366.44 40.625H337.378V24.125H366.003C371.753 24.125 376.753 25.2917 381.003 27.625C385.294 29.9167 388.628 33.1458 391.003 37.3125C393.378 41.4792 394.565 46.375 394.565 52C394.565 57.5833 393.378 62.4583 391.003 66.625C388.628 70.7917 385.294 74.0208 381.003 76.3125C376.711 78.6042 371.711 79.75 366.003 79.75H337.378ZM329.565 115V24.125H346.69V115H329.565ZM460.42 115.938C449.878 115.938 441.712 113 435.92 107.125C430.17 101.208 427.295 92.875 427.295 82.125V24.125H444.42V82.5625C444.42 87.7708 445.816 91.8125 448.607 94.6875C451.399 97.5625 455.337 99 460.42 99C465.545 99 469.503 97.5625 472.295 94.6875C475.128 91.8125 476.545 87.7708 476.545 82.5625V24.125H493.67V82.125C493.67 92.875 490.774 101.208 484.982 107.125C479.191 113 471.003 115.938 460.42 115.938ZM558.963 115.938C554.629 115.938 550.379 115.5 546.213 114.625C542.088 113.75 538.213 112.479 534.588 110.812C530.963 109.104 527.692 107.062 524.775 104.688L532.713 90.5625C536.213 93.4375 540.254 95.6667 544.838 97.25C549.421 98.7917 554.129 99.5625 558.963 99.5625C564.546 99.5625 568.879 98.625 571.963 96.75C575.046 94.8333 576.588 92.1458 576.588 88.6875V88.625C576.588 86 575.817 84 574.275 82.625C572.733 81.2083 570.692 80.1667 568.15 79.5C565.65 78.8333 562.921 78.2708 559.963 77.8125C556.421 77.2708 552.838 76.6042 549.213 75.8125C545.588 74.9792 542.254 73.6875 539.213 71.9375C536.171 70.1458 533.713 67.6042 531.838 64.3125C530.004 61.0208 529.088 56.625 529.088 51.125V51.0625C529.088 42.1875 532.004 35.3333 537.838 30.5C543.671 25.625 551.921 23.1875 562.588 23.1875C567.504 23.1875 572.504 24.0208 577.588 25.6875C582.671 27.3125 587.4 29.6458 591.775 32.6875L584.525 47.1875C581.025 44.7292 577.358 42.8542 573.525 41.5625C569.733 40.2292 566.088 39.5625 562.588 39.5625C557.338 39.5625 553.275 40.4375 550.4 42.1875C547.525 43.8958 546.088 46.3125 546.088 49.4375V49.5C546.088 52.4167 546.942 54.625 548.65 56.125C550.358 57.625 552.588 58.75 555.338 59.5C558.088 60.2083 561.046 60.875 564.213 61.5C567.713 62.1667 571.192 63 574.65 64C578.108 64.9583 581.275 66.3542 584.15 68.1875C587.025 70.0208 589.317 72.5417 591.025 75.75C592.733 78.9583 593.588 83.125 593.588 88.25V88.375C593.588 97.125 590.567 103.917 584.525 108.75C578.483 113.542 569.963 115.938 558.963 115.938Z" fill="black"/>
<path d="M41 241.938C34.0417 241.938 28.1042 240.625 23.1875 238C18.3125 235.333 14.5833 231.479 12 226.438C9.41667 221.354 8.125 215.229 8.125 208.062V183.125C8.125 175.917 9.41667 169.792 12 164.75C14.5833 159.708 18.3125 155.854 23.1875 153.188C28.1042 150.521 34.0417 149.188 41 149.188C46.75 149.188 51.8542 150.417 56.3125 152.875C60.8125 155.333 64.5208 158.896 67.4375 163.562C70.3958 168.229 72.4375 173.896 73.5625 180.562H55.8125C55.1458 177.521 54.1042 174.958 52.6875 172.875C51.3125 170.75 49.625 169.125 47.625 168C45.6667 166.875 43.4583 166.312 41 166.312C36.2083 166.312 32.4792 167.792 29.8125 170.75C27.1875 173.667 25.875 177.792 25.875 183.125V208.062C25.875 213.396 27.1875 217.521 29.8125 220.438C32.4792 223.354 36.2083 224.812 41 224.812C44.75 224.812 47.9167 223.583 50.5 221.125C53.0833 218.625 54.8542 215.104 55.8125 210.562H73.5625C72.3958 217.188 70.3333 222.854 67.375 227.562C64.4583 232.229 60.7708 235.792 56.3125 238.25C51.8542 240.708 46.75 241.938 41 241.938ZM97.23 241L131.98 150.125H142.855L177.605 241H159.167L137.417 178.938L115.667 241H97.23ZM113.917 226.438V209.938H161.73V226.438H113.917ZM249.21 211.375L266.522 150.125H289.085V241H273.522V170.438L274.147 174.438L256.772 230.875H241.647L224.272 175.688L224.897 170.438V241H209.335V150.125H231.897L249.21 211.375ZM337.378 205.75V189.25H366.44C369.523 189.25 372.023 188.229 373.94 186.188C375.857 184.104 376.815 181.375 376.815 178C376.815 174.542 375.857 171.792 373.94 169.75C372.065 167.667 369.565 166.625 366.44 166.625H337.378V150.125H366.003C371.753 150.125 376.753 151.292 381.003 153.625C385.294 155.917 388.628 159.146 391.003 163.312C393.378 167.479 394.565 172.375 394.565 178C394.565 183.583 393.378 188.458 391.003 192.625C388.628 196.792 385.294 200.021 381.003 202.312C376.711 204.604 371.711 205.75 366.003 205.75H337.378ZM329.565 241V150.125H346.69V241H329.565ZM460.42 241.938C449.878 241.938 441.712 239 435.92 233.125C430.17 227.208 427.295 218.875 427.295 208.125V150.125H444.42V208.562C444.42 213.771 445.816 217.812 448.607 220.688C451.399 223.562 455.337 225 460.42 225C465.545 225 469.503 223.562 472.295 220.688C475.128 217.812 476.545 213.771 476.545 208.562V150.125H493.67V208.125C493.67 218.875 490.774 227.208 484.982 233.125C479.191 239 471.003 241.938 460.42 241.938ZM558.963 241.938C554.629 241.938 550.379 241.5 546.213 240.625C542.088 239.75 538.213 238.479 534.588 236.812C530.963 235.104 527.692 233.062 524.775 230.688L532.713 216.562C536.213 219.438 540.254 221.667 544.838 223.25C549.421 224.792 554.129 225.562 558.963 225.562C564.546 225.562 568.879 224.625 571.963 222.75C575.046 220.833 576.588 218.146 576.588 214.688V214.625C576.588 212 575.817 210 574.275 208.625C572.733 207.208 570.692 206.167 568.15 205.5C565.65 204.833 562.921 204.271 559.963 203.812C556.421 203.271 552.838 202.604 549.213 201.812C545.588 200.979 542.254 199.688 539.213 197.938C536.171 196.146 533.713 193.604 531.838 190.312C530.004 187.021 529.088 182.625 529.088 177.125V177.062C529.088 168.188 532.004 161.333 537.838 156.5C543.671 151.625 551.921 149.188 562.588 149.188C567.504 149.188 572.504 150.021 577.588 151.688C582.671 153.312 587.4 155.646 591.775 158.688L584.525 173.188C581.025 170.729 577.358 168.854 573.525 167.562C569.733 166.229 566.088 165.562 562.588 165.562C557.338 165.562 553.275 166.438 550.4 168.188C547.525 169.896 546.088 172.312 546.088 175.438V175.5C546.088 178.417 546.942 180.625 548.65 182.125C550.358 183.625 552.588 184.75 555.338 185.5C558.088 186.208 561.046 186.875 564.213 187.5C567.713 188.167 571.192 189 574.65 190C578.108 190.958 581.275 192.354 584.15 194.188C587.025 196.021 589.317 198.542 591.025 201.75C592.733 204.958 593.588 209.125 593.588 214.25V214.375C593.588 223.125 590.567 229.917 584.525 234.75C578.483 239.542 569.963 241.938 558.963 241.938Z" fill="#4369DB"/>
</svg>
