<?xml version="1.0" encoding="UTF-8"?>
<svg id="_レイヤー_2" data-name="レイヤー 2" xmlns="http://www.w3.org/2000/svg" viewBox="0 0 147.44 27.12">
  <defs>
    <style>
      .cls-1 {
        fill: #4369db;
        stroke-width: 0px;
      }
    </style>
  </defs>
  <g id="_レイヤー_1-2" data-name="レイヤー 1">
    <g>
      <path class="cls-1" d="m14.52,16.04c0,4.16-2.16,5.96-5.24,5.96-1.96,0-3.88-.64-5.4-3.44l-3.88,3.08c1.8,3.8,5.48,5.48,9.36,5.48,6.24,0,10.76-3.44,10.76-11.2V.77h-5.6v15.28Z"/>
      <polygon class="cls-1" points="45.03 10.43 45.03 7.14 28.79 7.14 28.79 11.34 38.14 11.34 28.54 22.68 28.54 25.97 45.35 25.97 45.35 21.77 35.44 21.77 45.03 10.43"/>
      <path class="cls-1" d="m66.56,16.45c0,3.47-1.82,5.08-4.34,5.08s-3.82-1.4-3.82-4.55V7.14h-5.46v10.64c0,5.81,3.33,8.47,8.05,8.47,2.31,0,4.41-.88,5.85-2.52v2.24h5.18V7.14h-5.46v9.31Z"/>
      <path class="cls-1" d="m86.51,9.63v-2.49h-5.22v18.83h5.46v-8.89c0-3.6,2-5.25,5.01-5.25.42,0,.77.04,1.23.07v-5.04c-2.91,0-5.15.94-6.48,2.77Z"/>
      <path class="cls-1" d="m114.3,9.14c-1.37-1.54-3.33-2.27-5.64-2.27-5.32,0-9.42,3.78-9.42,9.7s4.1,9.7,9.42,9.7c2.52,0,4.52-.8,5.88-2.45v2.17h5.22V0h-5.46v9.14Zm-4.69,12.64c-2.73,0-4.83-1.96-4.83-5.22s2.1-5.22,4.83-5.22,4.8,1.96,4.8,5.22-2.1,5.22-4.8,5.22Z"/>
      <path class="cls-1" d="m147.44,16.63c0-6.06-4.27-9.77-9.8-9.77s-10.05,4.06-10.05,9.7,4.24,9.7,10.75,9.7c3.4,0,6.02-1.05,7.77-3.04l-2.91-3.15c-1.3,1.23-2.73,1.82-4.73,1.82-2.87,0-4.87-1.44-5.39-3.78h14.25c.03-.46.1-1.05.1-1.47Zm-14.42-1.71c.38-2.42,2.17-3.92,4.66-3.92s4.24,1.54,4.62,3.92h-9.28Z"/>
    </g>
  </g>
</svg>