<svg width="363" height="363" viewBox="0 0 363 363" fill="none" xmlns="http://www.w3.org/2000/svg">
<path d="M283.12 356.36H164.048C123.381 356.36 93.1253 348.227 73.28 331.96C53.76 315.693 44 290.643 44 256.808V105.04C44 71.2053 53.76 46.1547 73.28 29.888C93.1253 13.296 123.381 5 164.048 5H283.12C289.301 5 293.693 6.464 296.296 9.39201C299.224 11.9947 300.688 16.3867 300.688 22.568V81.616C300.688 87.7973 299.224 92.352 296.296 95.28C293.693 97.8827 289.301 99.184 283.12 99.184H185.032C174.947 99.184 167.464 101.299 162.584 105.528C157.704 109.432 155.264 115.451 155.264 123.584V239.728C155.264 247.861 157.704 253.88 162.584 257.784C167.464 261.363 174.947 263.152 185.032 263.152H283.12C289.301 263.152 293.693 264.616 296.296 267.544C299.224 270.147 300.688 274.539 300.688 280.72V338.792C300.688 344.973 299.224 349.528 296.296 352.456C293.693 355.059 289.301 356.36 283.12 356.36Z" fill="#4369DB"/>
</svg>
